<?xml version="1.0" encoding="utf-8"?>
<!-- Generator: Adobe Illustrator 25.0.0, SVG Export Plug-In . SVG Version: 6.00 Build 0)  -->
<svg version="1.1" xmlns="http://www.w3.org/2000/svg" xmlns:xlink="http://www.w3.org/1999/xlink" x="0px" y="0px"
	 viewBox="0 0 595.3 85" style="enable-background:new 0 0 595.3 85;" xml:space="preserve">
<style type="text/css">
	.st0{fill:#EC681C;}
	.st1{fill:#FFFFFF;}
	.st2{fill:#212121;}
	.st3{display:none;}
	.st4{display:inline;}
</style>
<g id="Layer_1">
	<g>
		<circle id="new_circle" class="st0" cx="40" cy="42.9" r="40"/>
		<g>
			<path class="st1" d="M60.4,64.2H28.1l-7.9-42.8L15.8,21l-0.4-2.1l7.9,0.9l1,5.4l40.3,4.4c0,0-2.7,16.9-4.2,26H29.8
				c0,0,0.9,3.9,1.3,6.1h29.3C60.4,61.6,60.4,62.5,60.4,64.2z M25.2,28.8l1.2,6.3l5.9,0.4l-0.7-6.1L25.2,28.8z M34.1,35.7l5,0.4
				l-0.2-5.8l-5.4-0.6L34.1,35.7z M45.9,31.1l-5.2-0.6l0.2,5.7l4.9,0.4L45.9,31.1z M39.2,38.1l-4.8-0.4l0.6,5.7l4.4,0.2L39.2,38.1z
				 M41.2,43.7l4.4,0.2l0.1-5.2L41,38.2L41.2,43.7z M32.5,37.6l-5.8-0.4l1.1,6l5.3,0.2C33.1,43.3,32.8,39.9,32.5,37.6L32.5,37.6z
				 M52.4,37l0.5-5.2l-5.2-0.6l-0.1,5.4L52.4,37z M47.5,38.7l-0.2,5.2l4.4,0.2l0.5-5L47.5,38.7z M35.2,45.5c0.3,2.5,0.6,5.6,0.6,5.6
				h3.9l-0.2-5.4L35.2,45.5z M59.8,37.6c0-0.1,0.8-4.9,0.8-4.9l-5.9-0.7l-0.5,5.1C54.2,37.2,59.3,37.6,59.8,37.6z M33.4,45.4
				l-5.2-0.2l1.1,5.8H34 M53.5,44.1l5.2,0.2l0.8-4.7L54,39.2L53.5,44.1z M45.5,45.9l-4.2-0.2l0.2,5.3h3.8L45.5,45.9z M51.5,46.1
				L47.3,46l-0.1,5.1H51L51.5,46.1z M57.6,51.1l0.8-4.7l-5.1-0.2l-0.5,4.9H57.6z"/>
			<circle id="new_tire" class="st1" cx="53.2" cy="70.3" r="4.1"/>
			<circle id="new_tire-2" class="st1" cx="36.7" cy="70.3" r="4.1"/>
		</g>
		<g>
			<path class="st2" d="M93.1,1.4h4.2l11,49.8c2,9,4,17.9,6,26.9h0.5c2-9,4.2-17.9,6.5-26.9l13.4-49.8h4.5l13.4,49.8
				c2.2,9,4.5,17.9,6.7,26.9h0.5c2-9,3.7-17.9,5.7-26.9l11-49.8h4l-18.9,82.1h-4l-15.9-59c-1.5-6.5-3-11.9-4.5-18.4h-0.5
				c-1.5,6.5-3.2,11.9-4.7,18.4l-15.7,59h-4L93.1,1.4z"/>
			<path class="st2" d="M188.4,1.4h44.1v3.5h-40.1v33.1H226v3.5h-33.6V80h41.3v3.5h-45.3V1.4z"/>
			<path class="st2" d="M243.4,1.4h21.4c16.4,0,26.6,6.5,26.6,19.9c0,8.7-5,15.4-14.7,17.9v0.5c12.2,1.7,19.9,8.5,19.9,19.9
				c0,15.7-11.7,23.9-30.4,23.9h-22.9V1.4z M262.3,37.9c17.9,0,25.1-5.7,25.1-17.2c0-11.2-8.5-15.9-24.4-15.9h-15.7v33.1H262.3z
				 M264.8,80c17.2,0,27.9-6.2,27.9-20.2c0-12.4-10.2-18.4-27.9-18.4h-17.4V80H264.8z"/>
		</g>
		<g>
			<path class="st0" d="M300.1,42.2c0-25.9,14.1-42.2,33.9-42.2c19.7,0,33.7,16.3,33.7,42.2c0,26-14.1,42.8-33.7,42.8
				C314.1,85,300.1,68.2,300.1,42.2z M361.7,42.2c0-22.7-11.2-37-27.8-37c-16.7,0-27.9,14.3-27.9,37c0,22.8,11.2,37.6,27.9,37.6
				C350.5,79.8,361.7,65,361.7,42.2z"/>
			<path class="st0" d="M424.8,83.5l-22.2-37.7h-17.4v37.7h-5.7v-82h23.4c16.3,0,27,6,27,21.7c0,13.1-8.2,20.5-21,22.3l22.5,38.1
				H424.8z M401.4,41.1c14.6,0,22.5-5.9,22.5-17.9c0-12.3-8-16.8-22.5-16.8h-16.2v34.7H401.4z"/>
			<path class="st0" d="M442.1,1.5h5.7v82h-5.7V1.5z"/>
			<path class="st0" d="M495.8,0c11.1,0,17.9,5.2,22.3,9.8l-3.4,3.7c-4.2-4.6-10-8.3-18.9-8.3c-18.8,0-30.4,14.3-30.4,37.1
				s11.1,37.5,29.7,37.5c7.3,0,14.3-2.2,18.3-6.2V48H494v-4.9h25v32.5c-5.1,5.5-13.6,9.3-24.3,9.3c-21,0-35.2-16.6-35.2-42.7
				C459.5,16.3,474.2,0,495.8,0z"/>
			<path class="st0" d="M527.6,42.2c0-25.9,14.1-42.2,33.9-42.2c19.7,0,33.7,16.3,33.7,42.2c0,26-14.1,42.8-33.7,42.8
				C541.6,85,527.6,68.2,527.6,42.2z M589.2,42.2c0-22.7-11.2-37-27.8-37c-16.7,0-27.9,14.3-27.9,37c0,22.8,11.2,37.6,27.9,37.6
				C578,79.8,589.2,65,589.2,42.2z"/>
		</g>
	</g>
</g>
<g id="Layer_3" class="st3">
	<g class="st4">
		<circle id="new_circle_1_" class="st1" cx="40" cy="42.9" r="40"/>
		<g>
			<path class="st2" d="M60.4,64.2H28.1l-7.9-42.8L15.8,21l-0.4-2.1l7.9,0.9l1,5.4l40.3,4.4c0,0-2.7,16.9-4.2,26H29.8
				c0,0,0.9,3.9,1.3,6.1h29.3C60.4,61.6,60.4,62.5,60.4,64.2z M25.2,28.8l1.2,6.3l5.9,0.4l-0.7-6.1L25.2,28.8z M34.1,35.7l5,0.4
				l-0.2-5.8l-5.4-0.6L34.1,35.7z M45.9,31.1l-5.2-0.6l0.2,5.7l4.9,0.4L45.9,31.1z M39.2,38.1l-4.8-0.4l0.6,5.7l4.4,0.2L39.2,38.1z
				 M41.2,43.7l4.4,0.2l0.1-5.2L41,38.2L41.2,43.7z M32.5,37.6l-5.8-0.4l1.1,6l5.3,0.2C33.1,43.3,32.8,39.9,32.5,37.6L32.5,37.6z
				 M52.4,37l0.5-5.2l-5.2-0.6l-0.1,5.4L52.4,37z M47.5,38.7l-0.2,5.2l4.4,0.2l0.5-5L47.5,38.7z M35.2,45.5c0.3,2.5,0.6,5.6,0.6,5.6
				h3.9l-0.2-5.4L35.2,45.5z M59.8,37.6c0-0.1,0.8-4.9,0.8-4.9l-5.9-0.7l-0.5,5.1C54.2,37.2,59.3,37.6,59.8,37.6z M33.4,45.4
				l-5.2-0.2l1.1,5.8H34 M53.5,44.1l5.2,0.2l0.8-4.7L54,39.2L53.5,44.1z M45.5,45.9l-4.2-0.2l0.2,5.3h3.8L45.5,45.9z M51.5,46.1
				L47.3,46l-0.1,5.1H51L51.5,46.1z M57.6,51.1l0.8-4.7l-5.1-0.2l-0.5,4.9H57.6z"/>
			<circle id="new_tire_1_" class="st2" cx="53.2" cy="70.3" r="4.1"/>
			<circle id="new_tire-2_1_" class="st2" cx="36.7" cy="70.3" r="4.1"/>
		</g>
		<g>
			<path class="st1" d="M93.1,1.4h4.2l11,49.8c2,9,4,17.9,6,26.9h0.5c2-9,4.2-17.9,6.5-26.9l13.4-49.8h4.5l13.4,49.8
				c2.2,9,4.5,17.9,6.7,26.9h0.5c2-9,3.7-17.9,5.7-26.9l11-49.8h4l-18.9,82.1h-4l-15.9-59c-1.5-6.5-3-11.9-4.5-18.4h-0.5
				c-1.5,6.5-3.2,11.9-4.7,18.4l-15.7,59h-4L93.1,1.4z"/>
			<path class="st1" d="M188.4,1.4h44.1v3.5h-40.1v33.1H226v3.5h-33.6V80h41.3v3.5h-45.3V1.4z"/>
			<path class="st1" d="M243.4,1.4h21.4c16.4,0,26.6,6.5,26.6,19.9c0,8.7-5,15.4-14.7,17.9v0.5c12.2,1.7,19.9,8.5,19.9,19.9
				c0,15.7-11.7,23.9-30.4,23.9h-22.9V1.4z M262.3,37.9c17.9,0,25.1-5.7,25.1-17.2c0-11.2-8.5-15.9-24.4-15.9h-15.7v33.1H262.3z
				 M264.8,80c17.2,0,27.9-6.2,27.9-20.2c0-12.4-10.2-18.4-27.9-18.4h-17.4V80H264.8z"/>
		</g>
		<g>
			<path class="st1" d="M300.1,42.2c0-25.9,14.1-42.2,33.9-42.2c19.7,0,33.7,16.3,33.7,42.2c0,26-14.1,42.8-33.7,42.8
				C314.1,85,300.1,68.2,300.1,42.2z M361.7,42.2c0-22.7-11.2-37-27.8-37c-16.7,0-27.9,14.3-27.9,37c0,22.8,11.2,37.6,27.9,37.6
				C350.5,79.8,361.7,65,361.7,42.2z"/>
			<path class="st1" d="M424.8,83.5l-22.2-37.7h-17.4v37.7h-5.7v-82h23.4c16.3,0,27,6,27,21.7c0,13.1-8.2,20.5-21,22.3l22.5,38.1
				H424.8z M401.4,41.1c14.6,0,22.5-5.9,22.5-17.9c0-12.3-8-16.8-22.5-16.8h-16.2v34.7H401.4z"/>
			<path class="st1" d="M442.1,1.5h5.7v82h-5.7V1.5z"/>
			<path class="st1" d="M495.8,0c11.1,0,17.9,5.2,22.3,9.8l-3.4,3.7c-4.2-4.6-10-8.3-18.9-8.3c-18.8,0-30.4,14.3-30.4,37.1
				s11.1,37.5,29.7,37.5c7.3,0,14.3-2.2,18.3-6.2V48H494v-4.9h25v32.5c-5.1,5.5-13.6,9.3-24.3,9.3c-21,0-35.2-16.6-35.2-42.7
				C459.5,16.3,474.2,0,495.8,0z"/>
			<path class="st1" d="M527.6,42.2c0-25.9,14.1-42.2,33.9-42.2c19.7,0,33.7,16.3,33.7,42.2c0,26-14.1,42.8-33.7,42.8
				C541.6,85,527.6,68.2,527.6,42.2z M589.2,42.2c0-22.7-11.2-37-27.8-37c-16.7,0-27.9,14.3-27.9,37c0,22.8,11.2,37.6,27.9,37.6
				C578,79.8,589.2,65,589.2,42.2z"/>
		</g>
	</g>
</g>
<g id="Layer_2" class="st3">
	<g class="st4">
		<circle id="new_circle_2_" class="st0" cx="40.1" cy="42.9" r="40"/>
		<g>
			<path class="st1" d="M60.4,64.2H28.1l-7.9-42.8L15.9,21l-0.4-2.1l7.9,0.9l1,5.4l40.3,4.4c0,0-2.7,16.9-4.2,26H29.9
				c0,0,0.9,3.9,1.3,6.1h29.3C60.5,61.6,60.4,62.5,60.4,64.2z M25.3,28.8l1.2,6.3l5.9,0.4l-0.7-6.1L25.3,28.8z M34.2,35.7l5,0.4
				l-0.2-5.8l-5.4-0.6L34.2,35.7z M46,31.1l-5.2-0.6l0.2,5.7l4.9,0.4L46,31.1z M39.2,38.1l-4.8-0.4l0.6,5.7l4.4,0.2L39.2,38.1z
				 M41.3,43.7l4.4,0.2l0.1-5.2l-4.7-0.3L41.3,43.7z M32.5,37.6l-5.8-0.4l1.1,6l5.3,0.2C33.2,43.3,32.9,39.9,32.5,37.6L32.5,37.6z
				 M52.4,37l0.5-5.2l-5.2-0.6l-0.1,5.4L52.4,37z M47.5,38.7l-0.2,5.2l4.4,0.2l0.5-5L47.5,38.7z M35.2,45.5c0.3,2.5,0.6,5.6,0.6,5.6
				h3.9l-0.2-5.4L35.2,45.5z M59.9,37.6c0-0.1,0.8-4.9,0.8-4.9l-5.9-0.7l-0.5,5.1C54.3,37.2,59.3,37.6,59.9,37.6z M33.4,45.4
				l-5.2-0.2l1.1,5.8h4.8 M53.6,44.2l5.2,0.2l0.8-4.7l-5.5-0.4L53.6,44.2z M45.5,45.9l-4.2-0.2l0.2,5.3h3.8L45.5,45.9z M51.6,46.1
				L47.3,46l-0.1,5.1h3.9L51.6,46.1z M57.7,51.1l0.8-4.7l-5.1-0.2l-0.5,4.9H57.7z"/>
			<circle id="new_tire_2_" class="st1" cx="53.2" cy="70.3" r="4.1"/>
			<circle id="new_tire-2_2_" class="st1" cx="36.8" cy="70.3" r="4.1"/>
		</g>
		<g>
			<path class="st1" d="M93.1,1.4h4.2l11,49.8c2,9,4,17.9,6,26.9h0.5c2-9,4.2-17.9,6.5-26.9l13.4-49.8h4.5l13.4,49.8
				c2.2,9,4.5,17.9,6.7,26.9h0.5c2-9,3.7-17.9,5.7-26.9l11-49.8h4l-18.9,82.1h-4l-15.9-59c-1.5-6.5-3-11.9-4.5-18.4h-0.5
				c-1.5,6.5-3.2,11.9-4.7,18.4l-15.7,59h-4L93.1,1.4z"/>
			<path class="st1" d="M188.5,1.4h44.1v3.5h-40.1V38h33.6v3.5h-33.6V80h41.3v3.5h-45.3V1.4z"/>
			<path class="st1" d="M243.5,1.4h21.4c16.4,0,26.6,6.5,26.6,19.9c0,8.7-5,15.4-14.7,17.9v0.5c12.2,1.7,19.9,8.5,19.9,19.9
				c0,15.7-11.7,23.9-30.4,23.9h-22.9V1.4z M262.4,38c17.9,0,25.1-5.7,25.1-17.2c0-11.2-8.5-15.9-24.4-15.9h-15.7V38H262.4z
				 M264.9,80c17.2,0,27.9-6.2,27.9-20.2c0-12.4-10.2-18.4-27.9-18.4h-17.4V80H264.9z"/>
		</g>
		<g>
			<path class="st0" d="M300.1,42.2C300.1,16.3,314.2,0,334,0c19.7,0,33.7,16.3,33.7,42.2c0,26-14.1,42.8-33.7,42.8
				C314.2,85,300.1,68.2,300.1,42.2z M361.7,42.2c0-22.7-11.2-37-27.8-37c-16.7,0-27.9,14.3-27.9,37c0,22.8,11.2,37.6,27.9,37.6
				C350.5,79.8,361.7,65,361.7,42.2z"/>
			<path class="st0" d="M424.8,83.5l-22.2-37.7h-17.4v37.7h-5.7v-82h23.4c16.3,0,27,6,27,21.7c0,13.1-8.2,20.5-21,22.3l22.5,38.1
				H424.8z M401.4,41.1c14.6,0,22.5-5.9,22.5-17.9c0-12.3-8-16.8-22.5-16.8h-16.2v34.7H401.4z"/>
			<path class="st0" d="M442.1,1.5h5.7v82h-5.7V1.5z"/>
			<path class="st0" d="M495.9,0c11.1,0,17.9,5.2,22.3,9.8l-3.4,3.7c-4.2-4.6-10-8.3-18.9-8.3c-18.8,0-30.4,14.3-30.4,37.1
				s11.1,37.5,29.7,37.5c7.3,0,14.3-2.2,18.3-6.2V48H494v-4.9h25v32.5c-5.1,5.5-13.6,9.3-24.3,9.3c-21,0-35.2-16.6-35.2-42.7
				C459.5,16.3,474.2,0,495.9,0z"/>
			<path class="st0" d="M527.6,42.2c0-25.9,14.1-42.2,33.9-42.2c19.7,0,33.7,16.3,33.7,42.2c0,26-14.1,42.8-33.7,42.8
				C541.7,85,527.6,68.2,527.6,42.2z M589.2,42.2c0-22.7-11.2-37-27.8-37c-16.7,0-27.9,14.3-27.9,37c0,22.8,11.2,37.6,27.9,37.6
				C578,79.8,589.2,65,589.2,42.2z"/>
		</g>
	</g>
</g>
</svg>
